A comedy/drama set in a village and centered on a battle of the sexes, where women threaten to withhold sexual favors if their men refuse to fetch water from a remote well. 

French Subtitles 

www.imdb.com/title/tt1686067/ 

Format : AVI 
Format/Info : Audio Video Interleave 
File size : 1.47 GiB 
Duration : 1h 59mn 
Overall bit rate : 1 754 Kbps 
Writing application : VirtualDubMod 1.5.10.3 | www.virtualdub-fr.org || (build 2550/release) 
Writing library : VirtualDubMod build 2550/release 
Video #0 
ID : 0 
Format : MPEG-4 Visual 
Format profile : AdvancedSimple@L5 
Format settings, BVOP : Yes 
Format settings, QPel : No 
Format settings, GMC : No warppoints 
Format settings, Matrix : Default (MPEG) 
Codec ID : XVID 
Codec ID/Hint : XviD 
Duration : 1h 59mn 
Bit rate : 1 360 Kbps 
Width : 704 pixels 
Height : 384 pixels 
Display aspect ratio : 16:9 
Frame rate : 25.000 fps 
Resolution : 24 bits 
Colorimetry : 4:2:0 
Scan type : Progressive 
Bits/(Pixel*Frame) : 0.201 
Stream size : 1.14 GiB (78%) 
Writing library : XviD 1.2.1 (UTC 2008-12-04) 
Audio #1 
ID : 1 
Format : AC-3 
Format/Info : Audio Coding 3 
Codec ID : 2000 
Duration : 1h 59mn 
Bit rate mode : Constant 
Bit rate : 384 Kbps 
Channel(s) : 6 channels 
Channel positions : Front: L C R, Surround: L R, LFE 
Sampling rate : 48.0 KHz 
Stream size : 329 MiB (22%) 
Alignment : Split accross interleaves 
Interleave, duration : 40 ms (1.00 video frame) 
Interleave, preload duration : 500 ms